{"extensionsUsed" : ["KHR_materials_pbrSpecularGlossiness"], "accessors" : [{"bufferView" : 0, "byteOffset" : 0, "componentType" : 5123, "count" : 2394, "type" : "SCALAR", "max" : [2348], "min" : [0]}, {"bufferView" : 1, "byteOffset" : 0, "componentType" : 5126, "count" : 2349, "type" : "VEC3", "max" : [17.971851348876953, 78.88117218017578, 8.739067077636719], "min" : [-17.975229263305664, 2.3504600524902344, -12.249265670776367], "name" : "POSITION"}, {"bufferView" : 1, "byteOffset" : 12, "componentType" : 5126, "count" : 2349, "type" : "VEC3", "max" : [0.9887503385543823, 0.9998937249183655, 0.9999505877494812], "min" : [-0.9887506365776062, -0.9667980074882507, -0.9995172023773193], "name" : "NORMAL"}, {"bufferView" : 1, "byteOffset" : 24, "componentType" : 5126, "count" : 2349, "type" : "VEC2", "max" : [0.9873819947242737, 0.9962589740753174], "min" : [0.006182394921779633, 0.0011423826217651367], "name" : "TEXCOORD_0"}], "asset" : {"generator" : "Aspose.3D 23.2", "version" : "2.0"}, "buffers" : [{"uri" : "data:application/octet-stream;base64,", "byteLength" : 81404}], "bufferViews" : [{"buffer" : 0, "byteOffset" : 0, "byteLength" : 4788, "target" : 34963}, {"buffer" : 0, "byteOffset" : 4792, "byteLength" : 76608, "byteStride" : 32, "target" : 34962}], "images" : [{"uri" : "data:image/png;base64,"}, {"uri" : "data:image/png;base64,"}, {"uri" : "data:image/png;base64,"}], "materials" : [{"name" : "", "extensions" : {"KHR_materials_pbrSpecularGlossiness" : {"diffuseFactor" : [1, 1, 1, 1], "diffuseTexture" : {"index" : 0, "texCoord" : 0}, "specularFactor" : [0, 0, 0], "glossinessFactor" : 0}}, "pbrMetallicRoughness" : {"baseColorFactor" : [1, 1, 1, 1], "baseColorTexture" : {"index" : 1, "texCoord" : 0}, "metallicFactor" : 1, "roughnessFactor" : 1, "metallicRoughnessTexture" : {"index" : 2, "texCoord" : 0}}, "emissiveFactor" : [0, 0, 0], "alphaMode" : "OPAQUE", "doubleSided" : true}], "meshes" : [{"primitives" : [{"attributes" : {"POSITION" : 1, "NORMAL" : 2, "TEXCOORD_0" : 3}, "indices" : 0, "material" : 0, "mode" : 4}]}], "nodes" : [{"matrix" : [0.006690124049782753, 0, 0, 0, 0, 0.006690124049782753, 0, 0, 0, 0, 0.006690124049782753, 0, 1.1294947398710065E-05, -0.2717249095439911, 0.2677428126335144, 1], "mesh" : 0, "name" : "node_id42"}, {"children" : [0], "name" : "root"}], "samplers" : [{"magFilter" : 9728, "minFilter" : 9985, "wrapS" : 10497, "wrapT" : 10497}, {"magFilter" : 9728, "minFilter" : 9985, "wrapS" : 10497, "wrapT" : 10497}, {"magFilter" : 9728, "minFilter" : 9985, "wrapS" : 10497, "wrapT" : 10497}], "scene" : 0, "scenes" : [{"nodes" : [1]}], "textures" : [{"sampler" : 0, "source" : 0, "name" : ""}, {"sampler" : 1, "source" : 1, "name" : ""}, {"sampler" : 2, "source" : 2, "name" : ""}]}